<?xml version="1.0" encoding="UTF-8" standalone="no"?>
<!-- Generator: Adobe Illustrator 23.1.1, SVG Export Plug-In . SVG Version: 6.00 Build 0) -->

<svg
   xmlns:dc="http://purl.org/dc/elements/1.1/"
   xmlns:cc="http://creativecommons.org/ns#"
   xmlns:rdf="http://www.w3.org/1999/02/22-rdf-syntax-ns#"
   xmlns:svg="http://www.w3.org/2000/svg"
   xmlns="http://www.w3.org/2000/svg"
   xmlns:sodipodi="http://sodipodi.sourceforge.net/DTD/sodipodi-0.dtd"
   xmlns:inkscape="http://www.inkscape.org/namespaces/inkscape"
   id="Layer_1"
   x="0px"
   y="0px"
   viewBox="0 0 1762.2 365"
   style="enable-background:new 0 0 1762.2 365;"
   xml:space="preserve"
   version="1.1"
   sodipodi:docname="RBWH-Foundation-Logo-3-CMYK-WHITE.svg"
   inkscape:version="0.92.4 (5da689c313, 2019-01-14)"
   inkscape:export-filename="C:\Users\Tim.Sherry\Documents\Homepage\img\portfolio\RBWH-Foundation-Logo-3-CMYK-WHITE.png"
   inkscape:export-xdpi="284.94"
   inkscape:export-ydpi="284.94"><metadata
   id="metadata55"><rdf:RDF><cc:Work
       rdf:about=""><dc:format>image/svg+xml</dc:format><dc:type
         rdf:resource="http://purl.org/dc/dcmitype/StillImage" /><dc:title></dc:title></cc:Work></rdf:RDF></metadata><defs
   id="defs53" /><sodipodi:namedview
   pagecolor="#743561"
   bordercolor="#743561"
   borderopacity="1"
   objecttolerance="10"
   gridtolerance="10"
   guidetolerance="10"
   inkscape:pageopacity="0"
   inkscape:pageshadow="2"
   inkscape:window-width="1920"
   inkscape:window-height="1017"
   id="namedview51"
   showgrid="false"
   inkscape:zoom="0.16116219"
   inkscape:cx="-49.63942"
   inkscape:cy="182.5"
   inkscape:window-x="-8"
   inkscape:window-y="-8"
   inkscape:window-maximized="1"
   inkscape:current-layer="Layer_1"
   borderlayer="true" /> <style
   type="text/css"
   id="style2"> .st0{fill:#FFFFFF;} </style> <g
   id="g48"> <g
   id="g40"> <g
   id="g14"> <g
   id="g12"> <path
   class="st0"
   d="M441.3,195h-19.8v40.7h-15.8V130.1h44.5c20.1,0,33.9,13,33.9,32.5c0,19-12.8,29.1-26.3,30.9l27.1,42.3 h-18.4L441.3,195z M448.1,144h-26.6v37.1h26.6c11.4,0,19.6-7.4,19.6-18.5S459.5,144,448.1,144z"
   id="path4" /> <path
   class="st0"
   d="M501.9,130.1h49.6c18.8,0,29.8,11.6,29.8,26.9c0,13.3-8.7,22.2-18.4,24.2c11.2,1.7,20.4,13.1,20.4,26 c0,16.6-11.1,28.5-30.6,28.5h-50.8V130.1z M548.5,174.9c10.6,0,16.5-6.7,16.5-15.4c0-8.7-5.9-15.5-16.5-15.5h-30.7v30.9H548.5z M549.3,221.8c11.1,0,17.7-6.3,17.7-16.6c0-8.7-6-16.3-17.7-16.3h-31.5v32.9H549.3z"
   id="path6" /> <path
   class="st0"
   d="M658.7,154.1l-21.9,81.6h-16.9l-30.2-105.6h17.7l21.9,84.7l23.1-84.7h12.8l23,84.7l21.9-84.7h17.7 l-30.1,105.6h-16.9L658.7,154.1z"
   id="path8" /> <path
   class="st0"
   d="M813.9,188.5h-58.4v47.2h-15.8V130.1h15.8v44.3h58.4v-44.3h15.8v105.6h-15.8V188.5z"
   id="path10" /> </g> </g> <g
   id="g38"> <g
   id="g36"> <path
   class="st0"
   d="M889.7,130.1h73.8v14.5h-57.3v28.5h42.3v14.5h-42.3v48.1h-16.5V130.1z"
   id="path16" /> <path
   class="st0"
   d="M962.2,195.8c0-22.9,15.5-41.7,40.2-41.7c24.9,0,40.2,18.8,40.2,41.7c0,23.1-15.3,41.8-40.2,41.8 C977.7,237.7,962.2,218.9,962.2,195.8z M1027.1,195.8c0-15-8.7-28.5-24.7-28.5c-15.8,0-24.7,13.5-24.7,28.5 c0,15.1,8.9,28.7,24.7,28.7C1018.3,224.5,1027.1,211,1027.1,195.8z"
   id="path18" /> <path
   class="st0"
   d="M1115,224.8c-6.1,6.6-16.1,12.8-28.3,12.8c-17,0-25.4-8.6-25.4-25.4v-56.2h14.8v51.2 c0,13.2,6.6,17.1,16.8,17.1c9.2,0,17.6-5.3,22.1-11.2v-57.1h14.8v79.5H1115V224.8z"
   id="path20" /> <path
   class="st0"
   d="M1203.7,184.8c0-13.2-6.8-17.5-17-17.5c-9.2,0-17.6,5.6-21.9,11.5v56.8H1150v-79.5h14.8v11.2 c5.3-6.4,15.8-13.2,28.2-13.2c16.8,0,25.5,8.9,25.5,25.7v55.8h-14.8V184.8z"
   id="path22" /> <path
   class="st0"
   d="M1298.7,224.3c-5.9,7.9-15.5,13.3-26,13.3c-20.8,0-35.6-15.6-35.6-41.7c0-25.5,14.8-41.8,35.6-41.8 c10.2,0,19.6,4.9,26,13.5v-37.6h14.8v105.6h-14.8V224.3z M1298.7,179c-4.1-6.4-13-11.7-22.1-11.7c-14.8,0-24,12-24,28.7 c0,16.5,9.2,28.5,24,28.5c9.1,0,17.9-5.1,22.1-11.5V179z"
   id="path24" /> <path
   class="st0"
   d="M1427.5,218.1v-88h14.8v26.1h16.1v13h-16.1v45.6c0,5.6,2.6,9.7,7.7,9.7c3.5,0,6.6-1.5,8.1-3.1l3.8,11.2 c-3.1,3-7.7,5.1-15.5,5.1C1434,237.7,1427.5,230.6,1427.5,218.1z"
   id="path26" /> <path
   class="st0"
   d="M1472.6,136.9c0-5.3,4.4-9.6,9.6-9.6c5.3,0,9.5,4.3,9.5,9.6c0,5.3-4.3,9.4-9.5,9.4 C1477.1,146.3,1472.6,142.2,1472.6,136.9z M1475,156.2h14.8v79.5H1475V156.2z"
   id="path28" /> <path
   class="st0"
   d="M1508.4,195.8c0-22.9,15.5-41.7,40.2-41.7c24.9,0,40.2,18.8,40.2,41.7c0,23.1-15.3,41.8-40.2,41.8 C1523.9,237.7,1508.4,218.9,1508.4,195.8z M1573.3,195.8c0-15-8.7-28.5-24.7-28.5c-15.8,0-24.7,13.5-24.7,28.5 c0,15.1,8.9,28.7,24.7,28.7C1564.5,224.5,1573.3,211,1573.3,195.8z"
   id="path30" /> <path
   class="st0"
   d="M1661.2,184.8c0-13.2-6.8-17.5-17-17.5c-9.2,0-17.6,5.6-21.9,11.5v56.8h-14.8v-79.5h14.8v11.2 c5.3-6.4,15.8-13.2,28.2-13.2c16.8,0,25.5,8.9,25.5,25.7v55.8h-14.8V184.8z"
   id="path32" /> <path
   class="st0"
   d="M1392.6,224.4c-5.9,7.9-15.5,13.3-26,13.3c-20.7,0-35.5-15.6-35.5-41.6c0-25.5,14.8-41.8,35.5-41.8 c10.2,0,19.7,4.9,26,13.5v-11.5h14.8v79.4h-14.8V224.4z M1392.6,179.3c-4.1-6.4-13-11.7-22-11.7c-14.8,0-24,11.8-24,28.4 c0,16.4,9.2,28.4,24,28.4c9,0,17.9-5.1,22-11.5V179.3z"
   id="path34" /> </g> </g> </g> <g
   id="g46"> <rect
   x="165.8"
   y="265.2"
   class="st0"
   width="105.8"
   height="14.6"
   id="rect42" /> <path
   class="st0"
   d="M256.9,227.7c-9.9-2-19.1-6-27.2-11.5c37.1-39,30.2-100.3-11-131.1c-42.9,32.3-46.8,93.6-11,131.1 c-8.1,5.5-17.3,9.5-27.2,11.5c-12.5-43.4-56.7-70.7-101.7-61.7c8.5,67.9,86.1,99.9,139.9,60c56,41,131.8,5.9,139.9-60 C313.5,157.1,269.4,184.3,256.9,227.7z M96.2,178.7c32.4,0.1,59.9,21.2,69.6,50.4C133.4,229,105.9,207.9,96.2,178.7z M218.6,104.3 c28.5,29.2,27.2,74.9,0,102.6C191.4,179.2,190.2,133.4,218.6,104.3z M271.5,229.1c9.7-29.2,37.2-50.3,69.6-50.4 C331.4,207.9,303.9,229,271.5,229.1z"
   id="path44" /> </g> </g> </svg>